<?xml version="1.0" encoding="utf-8"?>
<!-- Generator: Adobe Illustrator 16.0.0, SVG Export Plug-In . SVG Version: 6.00 Build 0)  -->
<!DOCTYPE svg PUBLIC "-//W3C//DTD SVG 1.1//EN" "http://www.w3.org/Graphics/SVG/1.1/DTD/svg11.dtd">
<svg version="1.1" id="圖層_1" xmlns="http://www.w3.org/2000/svg" xmlns:xlink="http://www.w3.org/1999/xlink" x="0px" y="0px"
	 width="141.73px" height="141.73px" viewBox="0 0 141.73 141.73" enable-background="new 0 0 141.73 141.73" xml:space="preserve">
<path fill="none" stroke="#000000" stroke-miterlimit="10" d="M79.194,78.9c3.57-3.367,10.829-0.518,15.584,3.275
	c8.314,6.631,12.68,17.133,13.137,18.506c0.472,1.414,3.569,9.227,9.228,5.455s0.337-14.277-5.658-22.359
	c-5.993-8.082-16.298-14.255-16.298-14.255l2.605-3.054c0,0,6.05,2.613,10.797,3.098c4.513,0.462,14.347,0.076,13.448-6.51
	c-0.764-5.6-10.245-2.855-13.739-3.412c-1.807-0.287-6.496-3.368-6.496-3.368s-1.496-1.93,3.353-5.521
	c6.734-1.459,11.251-11.676,7.481-17.34c-4.197-6.309-11.89-1.853-15.026-3.583c-5.657-5.208-26.144-5.253-26.144-5.253
	S45.821,8.55,49.66,26.195c-4.108,1.111-9.597,4.731-14.008,9.059l0-0.101l0.099-0.101c-4.327,4.412-7.947,9.9-9.059,14.008
	c-17.645-3.839-1.616,21.806-1.616,21.806s0.044,20.487,5.253,26.144c1.73,3.137-2.726,10.829,3.583,15.026
	c5.664,3.77,15.88-0.747,17.34-7.481c3.592-4.849,5.521-3.353,5.521-3.353s3.081,4.689,3.368,6.496
	c0.556,3.494-2.187,12.975,3.413,13.738c6.585,0.898,6.971-8.935,6.51-13.447c-0.485-4.747-3.098-10.797-3.098-10.797l3.053-2.605
	c0,0,6.174,10.305,14.256,16.298c8.081,5.995,18.587,11.315,22.358,5.658c3.771-5.658-4.04-8.756-5.455-9.228
	c-1.373-0.457-11.874-4.822-18.506-13.137C78.88,89.424,75.827,82.471,79.194,78.9z"/>
<g>
	<path d="M46.25,56.774c0.501,0.571,0.444,1.439-0.126,1.94l0,0c-0.57,0.501-1.439,0.444-1.94-0.126L40.5,54.392
		c-0.501-0.571-0.444-1.439,0.126-1.94l0,0c0.571-0.501,1.439-0.444,1.94,0.126L46.25,56.774z"/>
</g>
<g>
	<path d="M59.25,44.941c0.501,0.571,0.444,1.439-0.126,1.94l0,0c-0.57,0.501-1.439,0.444-1.94-0.126L53.5,42.559
		c-0.501-0.571-0.444-1.439,0.126-1.94l0,0c0.571-0.501,1.439-0.444,1.94,0.126L59.25,44.941z"/>
</g>
<g>
	<path d="M50.172,57.94c-0.276,0-0.5-0.224-0.5-0.5s0.224-0.5,0.5-0.5c3.492,0,6.333-2.878,6.333-6.417c0-0.276,0.224-0.5,0.5-0.5
		s0.5,0.224,0.5,0.5C57.505,54.613,54.216,57.94,50.172,57.94z"/>
</g>
</svg>
